<?xml version="1.0" encoding="iso-8859-1"?>
<!-- Uploaded to: SVG Repo, www.svgrepo.com, Generator: SVG Repo Mixer Tools -->
<svg fill="#000000" height="16px" width="16px" version="1.1" id="Capa_1" xmlns="http://www.w3.org/2000/svg" xmlns:xlink="http://www.w3.org/1999/xlink" 
	 viewBox="0 0 485.008 485.008" xml:space="preserve">
<g>
	<g>
		<path d="M171.501,464.698v-237.9l-166.3-192.6c-8.9-10.9-7.9-33.3,15.1-33.3h443.6c21.6,0,26.6,19.8,15.1,33.3l-162.3,187.5v147.2
			c0,6-2,11.1-7.1,15.1l-103.8,95.8C193.801,488.698,171.501,483.898,171.501,464.698z M64.701,41.298l142.2,164.3c3,4,5,8.1,5,13.1
			v200.6l64.5-58.5v-146.1c0-5,2-9.1,5-13.1l138.1-160.3L64.701,41.298L64.701,41.298z"/>
	</g>
</g>
</svg>
